<?xml version="1.0" standalone="no"?>
<!DOCTYPE svg PUBLIC "-//W3C//DTD SVG 20010904//EN"
 "http://www.w3.org/TR/2001/REC-SVG-20010904/DTD/svg10.dtd">
<svg version="1.0" xmlns="http://www.w3.org/2000/svg"
 width="225.000000pt" height="225.000000pt" viewBox="0 0 225.000000 225.000000"
 preserveAspectRatio="xMidYMid meet">

<g transform="translate(0.000000,225.000000) scale(0.100000,-0.100000)"
fill="#000000" stroke="none">
<path d="M1870 1493 c-85 -32 -189 -43 -292 -32 -73 9 -84 8 -95 -8 -7 -9 -13
-26 -13 -37 0 -12 -11 -47 -24 -78 l-24 -58 53 0 c141 0 280 59 397 170 40 38
71 69 68 68 -3 0 -34 -11 -70 -25z"/>
<path d="M695 1433 c-56 -15 -105 -82 -105 -145 0 -46 29 -99 70 -126 28 -19
45 -23 87 -20 28 3 63 12 77 21 23 16 26 24 26 77 l0 60 -60 0 c-46 0 -60 -3
-60 -14 0 -10 14 -16 43 -18 38 -3 42 -6 45 -31 5 -38 -21 -56 -79 -57 -57 0
-94 30 -104 84 -19 97 73 166 159 121 30 -16 46 -12 46 10 0 27 -92 51 -145
38z"/>
<path d="M1023 1428 c-9 -11 -78 -159 -119 -255 -13 -31 -13 -33 6 -33 13 0
27 14 40 40 l20 40 70 0 70 0 20 -40 c13 -26 27 -40 40 -40 23 0 28 -15 -55
170 -47 106 -61 130 -75 130 -4 0 -12 -6 -17 -12z m46 -107 c11 -27 21 -52 21
-55 0 -3 -22 -6 -50 -6 -27 0 -50 3 -50 6 0 14 43 104 50 104 4 0 17 -22 29
-49z"/>
<path d="M338 1285 l3 -146 102 3 c87 3 102 6 105 20 3 15 -8 18 -85 20 l-88
3 -3 43 -3 42 80 0 c74 0 81 2 81 20 0 18 -7 20 -81 20 l-80 0 3 43 3 42 88 3
c68 2 87 6 87 17 0 12 -20 15 -107 15 l-108 0 3 -145z"/>
<path d="M1330 1227 c-42 -28 -72 -78 -68 -112 3 -25 6 -23 111 55 l109 80
-60 0 c-45 0 -67 -5 -92 -23z"/>
<path d="M780 1010 c0 -5 5 -10 11 -10 5 0 7 5 4 10 -3 6 -8 10 -11 10 -2 0
-4 -4 -4 -10z"/>
<path d="M750 955 c0 -28 -4 -35 -19 -35 -13 0 -21 8 -23 22 -4 33 -36 35 -48
4 -13 -34 -38 -33 -43 2 l-4 27 -2 -27 c-1 -23 -6 -28 -26 -28 -18 0 -25 5
-25 20 0 11 -4 20 -10 20 -5 0 -10 -9 -10 -20 0 -16 -7 -20 -30 -20 -26 0 -30
4 -30 26 0 21 -4 25 -22 22 -32 -4 -36 -41 -6 -55 l23 -11 -25 -10 c-16 -7
-19 -11 -8 -11 9 -1 23 6 32 14 12 12 44 15 150 16 l136 1 0 39 c0 22 -2 39
-5 39 -3 0 -5 -16 -5 -35z m-280 -15 c0 -11 -4 -20 -9 -20 -14 0 -23 18 -16
30 10 17 25 11 25 -10z m230 -1 c0 -24 -23 -21 -28 4 -2 10 3 17 12 17 10 0
16 -9 16 -21z"/>
<path d="M792 959 c6 -16 12 -29 13 -27 6 6 -8 58 -16 58 -4 0 -3 -14 3 -31z"/>
<path d="M821 958 c-1 -26 -6 -38 -18 -41 -10 -3 1 -5 25 -6 l42 -1 -2 43 -1
42 -4 -38 c-5 -47 -25 -45 -34 4 l-6 34 -2 -37z"/>
<path d="M968 983 c7 -3 16 -2 19 1 4 3 -2 6 -13 5 -11 0 -14 -3 -6 -6z"/>
<path d="M1200 955 c0 -28 -4 -35 -19 -35 -12 0 -21 9 -25 26 -8 31 -36 29
-51 -4 -12 -27 -35 -29 -35 -2 0 11 -4 20 -10 20 -5 0 -10 -9 -10 -20 0 -15
-7 -20 -25 -20 -18 0 -25 5 -25 20 0 27 -27 37 -47 17 -13 -13 -14 -19 -4 -31
11 -13 38 -15 137 -15 l124 1 0 39 c0 21 -2 39 -5 39 -3 0 -5 -16 -5 -35z
m-220 -15 c0 -11 -4 -20 -9 -20 -14 0 -23 18 -16 30 10 17 25 11 25 -10z m166
9 c10 -17 -13 -36 -27 -22 -12 12 -4 33 11 33 5 0 12 -5 16 -11z"/>
<path d="M1232 953 l-2 -43 83 3 82 2 2 40 1 40 -6 -35 c-5 -25 -13 -36 -28
-38 -16 -2 -20 2 -20 20 1 17 -5 23 -19 23 -15 0 -19 -6 -18 -22 2 -20 -2 -23
-32 -23 -32 0 -34 2 -38 38 l-4 37 -1 -42z m108 -3 c0 -5 -4 -10 -9 -10 -6 0
-13 5 -16 10 -3 6 1 10 9 10 9 0 16 -4 16 -10z"/>
<path d="M1423 950 c0 -25 2 -35 4 -22 2 12 2 32 0 45 -2 12 -4 2 -4 -23z"/>
<path d="M1538 983 c7 -3 16 -2 19 1 4 3 -2 6 -13 5 -11 0 -14 -3 -6 -6z"/>
<path d="M1603 950 c0 -25 2 -35 4 -22 2 12 2 32 0 45 -2 12 -4 2 -4 -23z"/>
<path d="M1672 953 l-2 -43 64 0 c68 0 81 7 71 41 -9 26 -37 21 -50 -9 -7 -16
-18 -22 -42 -22 -29 0 -32 3 -36 38 l-4 37 -1 -42z m121 -8 c8 -18 -11 -31
-25 -17 -11 11 -3 32 12 32 4 0 10 -7 13 -15z"/>
<path d="M1832 959 c6 -16 12 -29 13 -27 6 6 -8 58 -16 58 -4 0 -3 -14 3 -31z"/>
<path d="M1860 956 c0 -24 -5 -36 -17 -39 -14 -4 -12 -5 5 -6 19 -1 22 4 22
39 0 22 -2 40 -5 40 -3 0 -5 -15 -5 -34z"/>
<path d="M1903 950 c0 -25 2 -35 4 -22 2 12 2 32 0 45 -2 12 -4 2 -4 -23z"/>
<path d="M354 948 c-16 -17 -19 -30 -13 -48 6 -23 7 -23 8 8 1 30 2 32 17 18
25 -26 46 -20 42 11 -4 35 -28 40 -54 11z m46 -8 c0 -11 -4 -20 -9 -20 -14 0
-23 18 -16 30 10 17 25 11 25 -10z"/>
<path d="M1561 948 c-2 -38 -38 -36 -54 2 -5 10 -6 9 -4 -5 2 -19 51 -45 63
-33 3 3 4 19 1 35 l-4 28 -2 -27z"/>
<path d="M1632 933 c-1 -23 -8 -44 -14 -46 -10 -4 -10 -6 0 -6 17 -1 24 20 19
61 -3 30 -4 30 -5 -9z"/>
<path d="M1840 890 c0 -5 5 -10 11 -10 5 0 7 5 4 10 -3 6 -8 10 -11 10 -2 0
-4 -4 -4 -10z"/>
<path d="M333 783 c2 -22 8 -28 27 -30 l25 -2 -25 8 c-24 7 -24 7 -5 19 l20
11 -20 2 c-17 1 -16 2 5 9 l25 8 -27 1 c-23 1 -27 -3 -25 -26z"/>
<path d="M400 778 c0 -36 4 -35 14 5 4 16 2 27 -4 27 -5 0 -10 -14 -10 -32z"/>
<path d="M437 796 c-12 -9 -14 -16 -8 -21 6 -3 11 0 12 7 1 7 5 2 9 -12 8 -24
8 -23 9 8 1 37 2 36 -22 18z"/>
<path d="M492 780 c0 -19 2 -27 5 -17 2 9 2 25 0 35 -3 9 -5 1 -5 -18z"/>
<path d="M520 778 c0 -24 3 -29 9 -19 7 11 13 12 23 4 10 -9 13 -5 15 18 2 25
-1 29 -22 29 -22 0 -25 -5 -25 -32z m40 12 c0 -5 -7 -10 -15 -10 -8 0 -15 5
-15 10 0 6 7 10 15 10 8 0 15 -4 15 -10z"/>
<path d="M601 784 c-6 -15 -9 -29 -6 -32 3 -4 8 4 12 16 3 12 9 22 13 22 4 0
10 -10 13 -22 4 -12 9 -20 12 -16 7 7 -15 58 -25 58 -4 0 -12 -12 -19 -26z"/>
<path d="M666 802 c7 -4 14 -18 16 -32 3 -23 4 -22 9 8 5 27 3 32 -15 32 -13
0 -17 -3 -10 -8z"/>
<path d="M720 780 c0 -26 3 -30 28 -29 l27 1 -25 7 c-24 7 -24 7 -5 19 l20 11
-20 2 c-17 1 -16 2 5 9 l25 8 -27 1 c-25 1 -28 -3 -28 -29z"/>
<path d="M790 795 c0 -8 7 -15 15 -15 21 0 19 -18 -2 -23 -14 -4 -12 -5 5 -6
26 -1 31 26 5 36 -15 6 -15 7 3 14 17 7 17 8 -3 8 -14 1 -23 -5 -23 -14z"/>
<path d="M884 795 c-9 -23 3 -45 26 -45 13 0 20 6 19 18 0 10 -3 12 -6 5 -8
-20 -33 -15 -33 6 0 12 8 21 23 24 l22 4 -23 2 c-12 0 -25 -6 -28 -14z"/>
<path d="M962 790 c0 -14 2 -19 5 -12 2 6 2 18 0 25 -3 6 -5 1 -5 -13z"/>
<path d="M1015 800 c-21 -33 29 -67 54 -36 12 15 5 46 -11 46 -6 0 -5 -6 2
-15 13 -16 6 -35 -15 -35 -21 0 -28 19 -15 35 8 10 9 15 2 15 -6 0 -14 -5 -17
-10z"/>
<path d="M1100 780 c0 -27 3 -31 23 -28 31 4 31 52 -1 56 -19 3 -22 -1 -22
-28z m37 14 c-3 -3 -12 -4 -19 -1 -8 3 -5 6 6 6 11 1 17 -2 13 -5z m-2 -24 c3
-5 -1 -10 -9 -10 -9 0 -16 5 -16 10 0 6 4 10 9 10 6 0 13 -4 16 -10z"/>
<path d="M1174 779 c-15 -31 -15 -33 -1 -20 10 7 17 21 17 30 1 9 7 3 15 -14
12 -25 14 -26 9 -5 -10 42 -21 44 -40 9z"/>
<path d="M1241 783 c-1 -30 2 -33 27 -32 22 1 23 2 5 6 -14 3 -23 13 -26 31
-4 24 -4 24 -6 -5z"/>
<path d="M1341 784 c-6 -15 -10 -29 -7 -31 2 -2 7 5 11 16 3 12 11 21 16 21 6
0 8 -4 5 -9 -3 -5 1 -14 9 -21 13 -11 13 -8 4 19 -13 38 -22 39 -38 5z"/>
<path d="M1411 783 c-1 -28 2 -33 22 -32 15 1 17 3 5 6 -9 2 -19 16 -21 31 -4
24 -4 24 -6 -5z"/>
<path d="M1471 782 c-1 -29 2 -33 22 -30 16 2 22 10 23 28 1 22 0 22 -3 3 -6
-32 -31 -29 -36 5 -4 25 -4 24 -6 -6z"/>
<path d="M1540 778 c0 -36 4 -35 14 5 4 16 2 27 -4 27 -5 0 -10 -14 -10 -32z"/>
<path d="M1577 796 c-12 -9 -14 -16 -8 -21 6 -3 11 0 12 7 1 7 5 2 9 -12 8
-24 8 -23 9 8 1 37 2 36 -22 18z"/>
<path d="M1632 780 c0 -19 2 -27 5 -17 2 9 2 25 0 35 -3 9 -5 1 -5 -18z"/>
<path d="M1661 778 c1 -27 3 -29 6 -9 l5 25 19 -25 19 -24 -1 35 c0 28 -2 31
-9 15 -7 -18 -8 -19 -15 -2 -12 28 -25 19 -24 -15z"/>
<path d="M1742 780 c0 -19 2 -27 5 -17 2 9 2 25 0 35 -3 9 -5 1 -5 -18z"/>
<path d="M1774 780 c1 -18 7 -26 24 -28 19 -3 22 1 21 30 -2 30 -2 31 -6 6 -5
-34 -30 -37 -36 -5 -3 19 -4 19 -3 -3z"/>
<path d="M1851 778 c1 -27 3 -28 6 -9 3 17 7 20 13 12 4 -7 10 -9 13 -4 3 5
-3 14 -14 21 -17 11 -19 9 -18 -20z"/>
<path d="M1896 783 c10 -40 14 -41 14 -5 0 18 -5 32 -10 32 -6 0 -8 -11 -4
-27z"/>
<path d="M968 753 c6 -2 18 -2 25 0 6 3 1 5 -13 5 -14 0 -19 -2 -12 -5z"/>
</g>
</svg>
