<?xml version="1.0" standalone="no"?>
<!DOCTYPE svg PUBLIC "-//W3C//DTD SVG 20010904//EN"
 "http://www.w3.org/TR/2001/REC-SVG-20010904/DTD/svg10.dtd">
<svg version="1.0" xmlns="http://www.w3.org/2000/svg"
 width="360.000000pt" height="199.000000pt" viewBox="0 0 360.000000 199.000000"
 preserveAspectRatio="xMidYMid meet">

<g transform="translate(0.000000,199.000000) scale(0.100000,-0.100000)"
fill="#000000" stroke="none">
<path d="M2936 1809 c-211 -94 -470 -164 -698 -188 -156 -17 -394 -13 -563 9
-82 12 -181 23 -220 26 -120 9 -144 -17 -180 -196 -13 -69 -40 -170 -59 -225
-32 -96 -48 -134 -95 -237 -11 -26 -21 -49 -21 -52 0 -19 370 1 545 29 465 74
964 381 1374 848 31 35 25 34 -83 -14z"/>
<path d="M1175 868 c-104 -5 -219 -15 -255 -23 -200 -45 -357 -203 -405 -408
-14 -58 -21 -207 -10 -207 5 0 842 624 860 641 5 5 7 8 5 7 -3 -1 -90 -5 -195
-10z"/>
</g>
</svg>
