<svg id="visual" viewBox="0 0 900 600" width="900" height="600" xmlns="http://www.w3.org/2000/svg" xmlns:xlink="http://www.w3.org/1999/xlink" version="1.1"><rect width="900" height="600" fill="#fff"></rect><g><g transform="translate(99 508)"><path d="M84.7 -25.2C98.2 14 89.6 62.7 57.8 87.7C26.1 112.7 -28.8 114 -62.5 88.9C-96.2 63.7 -108.6 12.2 -94.7 -27.6C-80.7 -67.4 -40.3 -95.5 -2.4 -94.8C35.6 -94 71.3 -64.4 84.7 -25.2Z" stroke="#F3F4F6" fill="none" stroke-width="20"></path></g><g transform="translate(677 353)"><path d="M48.5 -14.9C55.5 5.6 48.6 31.5 31.2 44.6C13.8 57.6 -14.2 57.8 -31.8 44.7C-49.4 31.7 -56.8 5.4 -49.8 -15.2C-42.7 -35.9 -21.4 -51 -0.3 -50.9C20.8 -50.8 41.6 -35.5 48.5 -14.9Z" stroke="#F3F4F6" fill="none" stroke-width="20"></path></g><g transform="translate(79 20)"><path d="M84.4 -26.6C95.8 7.5 81.9 50.6 51.6 73.1C21.3 95.6 -25.5 97.5 -57.9 75.1C-90.2 52.6 -108.2 5.8 -96.2 -29.3C-84.1 -64.3 -42.1 -87.7 -2.8 -86.8C36.5 -85.9 73.1 -60.7 84.4 -26.6Z" stroke="#F3F4F6" fill="none" stroke-width="20"></path></g></g></svg>